<svg width="226" height="26" viewBox="0 0 226 26" fill="none" xmlns="http://www.w3.org/2000/svg">
<path fill-rule="evenodd" clip-rule="evenodd" d="M208.544 2.36754C208.816 1.55086 209.581 1 210.442 1H223C224.105 1 225 1.89543 225 3V23C225 24.1046 224.105 25 223 25H218.5C217.672 25 217 24.3284 217 23.5C217 22.6716 216.328 22 215.5 22H212.07C211.402 22 210.777 22.3342 210.406 22.8906L209.594 24.1094C209.223 24.6658 208.598 25 207.93 25H203.775C202.41 25 201.446 23.6626 201.877 22.3675L208.544 2.36754ZM211.877 15.3675C211.446 16.6626 212.41 18 213.775 18H215C216.105 18 217 17.1046 217 16V14C217 12.8954 216.105 12 215 12H214.442C213.581 12 212.816 12.5509 212.544 13.3675L211.877 15.3675Z" fill="#F1F6FC"/>
<path d="M179.544 5.82521C180.5 6.06411 181.5 6.06411 182.456 5.82521L201.512 1.06184C203.034 0.681164 204.382 2.12246 203.901 3.61629L197.451 23.6136C197.185 24.4399 196.416 25 195.547 25H191.003C189.898 25 189.002 24.1044 189.002 22.9997V14.8847C189.002 13.4881 187.607 12.5214 186.299 13.0117L183.107 14.2085C181.749 14.718 180.251 14.718 178.893 14.2085L175.701 13.0117C174.393 12.5214 172.998 13.4881 172.998 14.8847V22.9997C172.998 24.1045 172.102 25 170.997 25H166.453C165.584 25 164.815 24.4399 164.549 23.6136L158.099 3.61628C157.618 2.12246 158.966 0.681164 160.488 1.06184L179.544 5.82521Z" fill="#F1F6FC"/>
<path fill-rule="evenodd" clip-rule="evenodd" d="M149 9C147.895 9 147 9.89543 147 11V23C147 24.1046 147.895 25 149 25H158.225C159.59 25 160.554 23.6626 160.123 22.3675L156.123 10.3675C155.85 9.55086 155.086 9 154.225 9H149Z" fill="#F1F6FC"/>
<path fill-rule="evenodd" clip-rule="evenodd" d="M149 7C147.895 7 147 6.10457 147 5V3C147 1.89543 147.895 1 149 1H151.558C152.419 1 153.184 1.55086 153.456 2.36754L154.123 4.36754C154.554 5.66261 153.59 7 152.225 7H149Z" fill="#F1F6FC"/>
<path d="M136.943 25C135.682 25 134.453 24.6025 133.431 23.8641L121.846 15.4937C120.291 14.3703 118.201 15.8694 118.765 17.7032L120.213 22.4118C120.609 23.6979 119.647 25 118.302 25H114.453C113.593 25 112.829 24.4491 112.557 23.6325L106.105 4.26951C105.62 2.81267 106.889 0.728464 108.394 1.02963L132.612 6.52156C133.849 6.76908 135.003 5.82252 135.003 4.56044L135.003 2.99996C135.003 1.89541 135.898 1 137.002 1H141.001C142.105 1 143 1.89543 143 3V23C143 24.1046 142.105 25 141.001 25H136.943Z" fill="#F1F6FC"/>
<path fill-rule="evenodd" clip-rule="evenodd" d="M92.5441 2.36754C92.8164 1.55086 93.5807 1 94.4415 1H99.5585C100.419 1 101.184 1.55086 101.456 2.36754L108.123 22.3675C108.554 23.6626 107.59 25 106.225 25H102.177C101.45 25 100.781 24.6062 100.428 23.9713L99.9048 23.0287C99.5521 22.3938 98.8829 22 98.1565 22H95.8435C95.1171 22 94.4479 22.3938 94.0952 23.0287L93.5715 23.9713C93.2188 24.6062 92.5495 25 91.8232 25H87.7748C86.4097 25 85.4458 23.6626 85.8775 22.3675L92.5441 2.36754ZM93.8775 15.3675C93.4458 16.6626 94.4097 18 95.7748 18H98.2251C99.5903 18 100.554 16.6626 100.123 15.3675L99.4558 13.3675C99.1836 12.5509 98.4193 12 97.5585 12H96.4415C95.5807 12 94.8164 12.5509 94.5441 13.3675L93.8775 15.3675Z" fill="#F1F6FC"/>
<path fill-rule="evenodd" clip-rule="evenodd" d="M81.8366 12.1863C83.4119 11.5956 84.9682 13.0953 84.4362 14.6914L81.4558 23.6325C81.1836 24.4492 80.4193 25 79.5585 25L58.696 25C56.4694 25 55.9089 21.9092 57.9938 21.1274L81.8366 12.1863Z" fill="#F1F6FC"/>
<path d="M69.4821 1C67.9385 1 66.9768 2.67443 67.7545 4.00774L71.432 10.3119C71.923 11.1537 72.9493 11.519 73.8618 11.1768L86.3923 6.47788C86.9574 6.26597 87.3966 5.81022 87.5874 5.23768L88.1225 3.63246C88.5542 2.33739 87.5903 1 86.2252 1L69.4821 1Z" fill="#F1F6FC"/>
<path fill-rule="evenodd" clip-rule="evenodd" d="M60.8513 1C61.5626 1 62.2204 1.39227 62.5788 2.03021L67.8054 11.3327C68.4298 12.4441 67.9404 13.8716 66.7801 14.3233L39.7022 24.8659C38.3947 25.375 37 24.3715 37 22.9216L37 3.0765C37 1.92968 37.8954 1 39 1H60.8513ZM47.6835 13.4841C46.3791 13.9766 45 12.9737 45 11.5326V9.306C45 8.15918 45.8954 7.2295 47 7.2295L54.2357 7.2295C55.2101 7.2295 56 8.0496 56 9.06125C56 9.83151 55.5359 10.5195 54.8387 10.7827L47.6835 13.4841Z" fill="#F1F6FC"/>
<path d="M14.8933 5.32603C16.2516 5.83539 17.7484 5.83539 19.1067 5.32603L30.2978 1.1294C31.6053 0.639082 33 1.60564 33 3.00205V23C33 24.1046 32.1046 25.0001 31 25.0001H27C25.8954 25.0001 25 24.1046 25 23.0001V14.8861C25 13.4896 23.6053 12.5231 22.2978 13.0134L19.1067 14.21C17.7484 14.7194 16.2516 14.7194 14.8933 14.21L11.7022 13.0134C10.3947 12.5231 9 13.4896 9 14.886V23.0001C9 24.1046 8.10457 25.0001 7 25.0001H3C1.89543 25.0001 1 24.1046 1 23.0001V3.00206C1 1.60565 2.39475 0.639083 3.70225 1.1294L14.8933 5.32603Z" fill="#F1F6FC"/>
</svg>
