<svg width="32" height="24" viewBox="0 0 32 24" fill="none" xmlns="http://www.w3.org/2000/svg">
<path d="M9.90625 4.50703C9.90625 4.12572 9.66713 3.7851 9.30225 3.65045C7.86159 3.11879 4.20008 1.76805 2.26668 1.05919C1.65379 0.83448 1 1.27745 1 1.91743L1 22.0826C1 22.7225 1.65379 23.1655 2.26668 22.9408C4.20007 22.232 7.86159 20.8812 9.30225 20.3496C9.66713 20.2149 9.90625 19.8743 9.90625 19.493V4.50703Z" fill="#7F1D1D"/>
<path d="M22.0938 19.493C22.0938 19.8743 22.3329 20.2149 22.6977 20.3496C24.1384 20.8812 27.7999 22.232 29.7333 22.9408C30.3462 23.1655 31 22.7225 31 22.0826V1.91826C31 1.27828 30.3462 0.83531 29.7333 1.06002C27.7999 1.76888 24.1384 3.11962 22.6977 3.65128C22.3329 3.78593 22.0938 4.12655 22.0938 4.50786V19.493Z" fill="#7F1D1D"/>
<path d="M1.60832 8.15059L14.6833 12.9444C15.5322 13.2556 16.4678 13.2556 17.3167 12.9444L30.3917 8.15059C30.7576 8.01643 31 7.67443 31 7.29235V1.91743C31 1.27745 30.3462 0.83448 29.7333 1.05919L17.3167 5.6116C16.4678 5.92286 15.5322 5.92286 14.6833 5.6116L2.26668 1.05919C1.65379 0.83448 1 1.27745 1 1.91743V7.29235C1 7.67443 1.24241 8.01643 1.60832 8.15059Z" fill="#DC2626"/>
<path d="M2.26668 1.05919C1.65379 0.83448 1 1.27745 1 1.91743L1 22.0826C1 22.7225 1.65379 23.1655 2.26668 22.9408L7.89168 20.8785C8.25759 20.7443 8.5 20.4023 8.5 20.0202V3.97977C8.5 3.59769 8.25759 3.25569 7.89168 3.12153L2.26668 1.05919Z" fill="#EF4444"/>
<path d="M29.7333 1.06002C30.3462 0.83531 31 1.27828 31 1.91826V22.0826C31 22.7225 30.3462 23.1655 29.7333 22.9408L24.1083 20.8785C23.7424 20.7443 23.5 20.4023 23.5 20.0202V3.9806C23.5 3.59852 23.7424 3.25652 24.1083 3.12236L29.7333 1.06002Z" fill="#EF4444"/>
</svg>
